<svg version="1.1" xmlns="http://www.w3.org/2000/svg" xmlns:xlink="http://www.w3.org/1999/xlink"><defs><symbol id="account-box" viewBox="0 0 32 32"><title>account-box</title><path d="M4 6.667v18.667c0 1.467 1.187 2.667 2.667 2.667h18.667c1.467 0 2.667-1.2 2.667-2.667v-18.667c0-1.467-1.2-2.667-2.667-2.667h-18.667c-1.48 0-2.667 1.2-2.667 2.667zM20 12c0 2.213-1.787 4-4 4s-4-1.787-4-4 1.787-4 4-4 4 1.787 4 4zM8 22.667c0-2.667 5.333-4.133 8-4.133s8 1.467 8 4.133v1.333h-16v-1.333z"></path></symbol><symbol id="account-circle" viewBox="0 0 32 32"><title>account-circle</title><path d="M16 2.667c-7.36 0-13.333 5.973-13.333 13.333s5.973 13.333 13.333 13.333 13.333-5.973 13.333-13.333-5.973-13.333-13.333-13.333zM16 6.667c2.213 0 4 1.787 4 4s-1.787 4-4 4-4-1.787-4-4 1.787-4 4-4zM16 25.6c-3.333 0-6.28-1.707-8-4.293 0.040-2.653 5.333-4.107 8-4.107 2.653 0 7.96 1.453 8 4.107-1.72 2.587-4.667 4.293-8 4.293z"></path></symbol><symbol id="add" viewBox="0 0 32 32"><title>add</title><path d="M25.333 17.333h-8v8h-2.667v-8h-8v-2.667h8v-8h2.667v8h8v2.667z"></path></symbol><symbol id="add-box" viewBox="0 0 32 32"><title>add-box</title><path d="M25.333 4h-18.667c-1.48 0-2.667 1.2-2.667 2.667v18.667c0 1.467 1.187 2.667 2.667 2.667h18.667c1.467 0 2.667-1.2 2.667-2.667v-18.667c0-1.467-1.2-2.667-2.667-2.667zM22.667 17.333h-5.333v5.333h-2.667v-5.333h-5.333v-2.667h5.333v-5.333h2.667v5.333h5.333v2.667z"></path></symbol><symbol id="add-circle" viewBox="0 0 32 32"><title>add-circle</title><path d="M16 2.667c-7.36 0-13.333 5.973-13.333 13.333s5.973 13.333 13.333 13.333 13.333-5.973 13.333-13.333-5.973-13.333-13.333-13.333zM22.667 17.333h-5.333v5.333h-2.667v-5.333h-5.333v-2.667h5.333v-5.333h2.667v5.333h5.333v2.667z"></path></symbol><symbol id="add-circle-outline" viewBox="0 0 32 32"><title>add-circle-outline</title><path d="M17.333 9.333h-2.667v5.333h-5.333v2.667h5.333v5.333h2.667v-5.333h5.333v-2.667h-5.333v-5.333zM16 2.667c-7.36 0-13.333 5.973-13.333 13.333s5.973 13.333 13.333 13.333 13.333-5.973 13.333-13.333-5.973-13.333-13.333-13.333zM16 26.667c-5.88 0-10.667-4.787-10.667-10.667s4.787-10.667 10.667-10.667 10.667 4.787 10.667 10.667-4.787 10.667-10.667 10.667z"></path></symbol><symbol id="arrow-back" viewBox="0 0 32 32"><title>arrow-back</title><path d="M26.667 14.667h-16.227l7.453-7.453-1.893-1.88-10.667 10.667 10.667 10.667 1.88-1.88-7.44-7.453h16.227v-2.667z"></path></symbol><symbol id="arrow-down" viewBox="0 0 32 32"><title>arrow-down</title><path d="M9.88 10.453l6.12 6.107 6.12-6.107 1.88 1.88-8 8-8-8z"></path></symbol><symbol id="arrow-dropdown" viewBox="0 0 32 32"><title>arrow-dropdown</title><path d="M9.333 13.333l6.667 6.667 6.667-6.667z"></path></symbol><symbol id="arrow-dropup" viewBox="0 0 32 32"><title>arrow-dropup</title><path d="M9.333 18.667l6.667-6.667 6.667 6.667z"></path></symbol><symbol id="arrow-forward" viewBox="0 0 32 32"><title>arrow-forward</title><path d="M16 5.333l-1.88 1.88 7.44 7.453h-16.227v2.667h16.227l-7.44 7.453 1.88 1.88 10.667-10.667z"></path></symbol><symbol id="arrow-left" viewBox="0 0 32 32"><title>arrow-left</title><path d="M20.547 21.453l-6.107-6.12 6.107-6.12-1.88-1.88-8 8 8 8z"></path></symbol><symbol id="arrow-right" viewBox="0 0 32 32"><title>arrow-right</title><path d="M11.453 21.787l6.107-6.12-6.107-6.12 1.88-1.88 8 8-8 8z"></path></symbol><symbol id="arrow-up" viewBox="0 0 32 32"><title>arrow-up</title><path d="M9.88 20.547l6.12-6.107 6.12 6.107 1.88-1.88-8-8-8 8z"></path></symbol><symbol id="asterisk" viewBox="0 0 32 32"><title>asterisk</title><path d="M27.607 18.75q0.821 0.464 1.063 1.384t-0.223 1.741l-1.143 1.964q-0.464 0.821-1.384 1.063t-1.741-0.223l-4.75-2.732v5.482q0 0.929-0.679 1.607t-1.607 0.679h-2.286q-0.929 0-1.607-0.679t-0.679-1.607v-5.482l-4.75 2.732q-0.821 0.464-1.741 0.223t-1.384-1.063l-1.143-1.964q-0.464-0.821-0.223-1.741t1.063-1.384l4.75-2.75-4.75-2.75q-0.821-0.464-1.063-1.384t0.223-1.741l1.143-1.964q0.464-0.821 1.384-1.063t1.741 0.223l4.75 2.732v-5.482q0-0.929 0.679-1.607t1.607-0.679h2.286q0.929 0 1.607 0.679t0.679 1.607v5.482l4.75-2.732q0.821-0.464 1.741-0.223t1.384 1.063l1.143 1.964q0.464 0.821 0.223 1.741t-1.063 1.384l-4.75 2.75z"></path></symbol><symbol id="backspace" viewBox="0 0 32 32"><title>backspace</title><path d="M28 14.667h-18.893l4.773-4.787-1.88-1.88-8 8 8 8 1.88-1.88-4.773-4.787h18.893z"></path></symbol><symbol id="bag" viewBox="0 0 32 32"><title>bag</title><path d="M28 10h-4v-0.281c0-4.281-3.438-7.719-7.719-7.719h-0.5c-4.281 0-7.781 3.438-7.781 7.719v0.281h-4l-2 20h28l-2-20zM10 9.719c0-3.169 2.613-5.719 5.781-5.719h0.5c3.169 0 5.719 2.55 5.719 5.719v0.281h-12v-0.281zM4.237 28l1.556-16h2.206v2.269c-0.6 0.344-1 0.994-1 1.731 0 1.106 0.894 2 2 2s2-0.894 2-2c0-0.738-0.4-1.387-1-1.731v-2.269h12v2.269c-0.6 0.344-1 0.994-1 1.731 0 1.106 0.894 2 2 2s2-0.894 2-2c0-0.738-0.4-1.387-1-1.731v-2.269h2.212l1.556 16h-23.531z"></path></symbol><symbol id="calendar" viewBox="0 0 32 32"><title>calendar</title><path d="M3.429 29.714h5.143v-5.143h-5.143v5.143zM9.714 29.714h5.714v-5.143h-5.714v5.143zM3.429 23.429h5.143v-5.714h-5.143v5.714zM9.714 23.429h5.714v-5.714h-5.714v5.714zM3.429 16.571h5.143v-5.143h-5.143v5.143zM16.571 29.714h5.714v-5.143h-5.714v5.143zM9.714 16.571h5.714v-5.143h-5.714v5.143zM23.429 29.714h5.143v-5.143h-5.143v5.143zM16.571 23.429h5.714v-5.714h-5.714v5.714zM10.286 8v-5.143q0-0.232-0.17-0.402t-0.402-0.17h-1.143q-0.232 0-0.402 0.17t-0.17 0.402v5.143q0 0.232 0.17 0.402t0.402 0.17h1.143q0.232 0 0.402-0.17t0.17-0.402zM23.429 23.429h5.143v-5.714h-5.143v5.714zM16.571 16.571h5.714v-5.143h-5.714v5.143zM23.429 16.571h5.143v-5.143h-5.143v5.143zM24 8v-5.143q0-0.232-0.17-0.402t-0.402-0.17h-1.143q-0.232 0-0.402 0.17t-0.17 0.402v5.143q0 0.232 0.17 0.402t0.402 0.17h1.143q0.232 0 0.402-0.17t0.17-0.402zM30.857 6.857v22.857q0 0.929-0.679 1.607t-1.607 0.679h-25.143q-0.929 0-1.607-0.679t-0.679-1.607v-22.857q0-0.929 0.679-1.607t1.607-0.679h2.286v-1.714q0-1.179 0.839-2.018t2.018-0.839h1.143q1.179 0 2.018 0.839t0.839 2.018v1.714h6.857v-1.714q0-1.179 0.839-2.018t2.018-0.839h1.143q1.179 0 2.018 0.839t0.839 2.018v1.714h2.286q0.929 0 1.607 0.679t0.679 1.607z"></path></symbol><symbol id="call" viewBox="0 0 32 32"><title>call</title><path d="M8.827 14.387c1.92 3.773 5.013 6.853 8.787 8.787l2.933-2.933c0.36-0.36 0.893-0.48 1.36-0.32 1.493 0.493 3.107 0.76 4.76 0.76 0.733 0 1.333 0.6 1.333 1.333v4.653c0 0.733-0.6 1.333-1.333 1.333-12.52 0-22.667-10.147-22.667-22.667 0-0.733 0.6-1.333 1.333-1.333h4.667c0.733 0 1.333 0.6 1.333 1.333 0 1.667 0.267 3.267 0.76 4.76 0.147 0.467 0.040 0.987-0.333 1.36l-2.933 2.933z"></path></symbol><symbol id="cancel-circle" viewBox="0 0 32 32"><title>cancel-circle</title><path d="M16 2.667c-7.373 0-13.333 5.96-13.333 13.333s5.96 13.333 13.333 13.333 13.333-5.96 13.333-13.333-5.96-13.333-13.333-13.333zM22.667 20.787l-1.88 1.88-4.787-4.787-4.787 4.787-1.88-1.88 4.787-4.787-4.787-4.787 1.88-1.88 4.787 4.787 4.787-4.787 1.88 1.88-4.787 4.787 4.787 4.787z"></path></symbol><symbol id="cancel-circle-outline" viewBox="0 0 32 32"><title>cancel-circle-outline</title><path d="M19.453 10.667l-3.453 3.453-3.453-3.453-1.88 1.88 3.453 3.453-3.453 3.453 1.88 1.88 3.453-3.453 3.453 3.453 1.88-1.88-3.453-3.453 3.453-3.453-1.88-1.88zM16 2.667c-7.373 0-13.333 5.96-13.333 13.333s5.96 13.333 13.333 13.333 13.333-5.96 13.333-13.333-5.96-13.333-13.333-13.333zM16 26.667c-5.88 0-10.667-4.787-10.667-10.667s4.787-10.667 10.667-10.667 10.667 4.787 10.667 10.667-4.787 10.667-10.667 10.667z"></path></symbol><symbol id="cart" viewBox="0 0 32 32"><title>cart</title><path d="M10 25c-0.828 0-1.5 0.672-1.5 1.5s0.672 1.5 1.5 1.5 1.5-0.672 1.5-1.5-0.672-1.5-1.5-1.5z"></path><path d="M24.031 25c-0.828 0-1.5 0.672-1.5 1.5s0.672 1.5 1.5 1.5 1.5-0.672 1.5-1.5-0.672-1.5-1.5-1.5z"></path><path d="M28 8l-20.301-2.022c-0.102-0.436-0.273-0.916-0.74-1.292-0.582-0.468-1.522-0.686-2.959-0.686v1c1.163 0 1.948 0.157 2.332 0.465 0.279 0.224 0.353 0.526 0.448 0.999l-0.002 0 2.628 14.602c0.151 0.901 0.45 1.576 0.831 2.062 0.453 0.578 1.046 0.871 1.763 0.871h15v-1h-15c-0.295 0-1.196 0.008-1.609-2.11l-0.339-1.885 16.949-3.005 1-8z"></path></symbol><symbol id="cart-outline" viewBox="0 0 32 32"><title>cart-outline</title><path d="M10 25c-0.828 0-1.5 0.672-1.5 1.5s0.672 1.5 1.5 1.5 1.5-0.672 1.5-1.5-0.672-1.5-1.5-1.5zM10 27c-0.276 0-0.5-0.224-0.5-0.5s0.224-0.5 0.5-0.5 0.5 0.224 0.5 0.5-0.224 0.5-0.5 0.5z"></path><path d="M24.031 25c-0.828 0-1.5 0.672-1.5 1.5s0.672 1.5 1.5 1.5 1.5-0.672 1.5-1.5-0.672-1.5-1.5-1.5zM24.031 27c-0.276 0-0.5-0.224-0.5-0.5s0.224-0.5 0.5-0.5 0.5 0.224 0.5 0.5-0.224 0.5-0.5 0.5z"></path><path d="M28 8l-20.301-2.022c-0.102-0.436-0.273-0.916-0.74-1.292-0.582-0.468-1.522-0.686-2.959-0.686v1c1.163 0 1.948 0.157 2.332 0.465 0.279 0.224 0.353 0.526 0.448 0.999l-0.002 0 2.628 14.602c0.151 0.901 0.45 1.576 0.831 2.062 0.453 0.578 1.046 0.871 1.763 0.871h15v-1h-15c-0.295 0-1.196 0.008-1.609-2.11l-0.339-1.885 16.949-3.005 1-8zM26.162 15.147l-16.288 2.874-1.983-11.019 18.992 1.913-0.721 6.231z"></path></symbol><symbol id="check" viewBox="0 0 32 32"><title>check</title><path d="M12 21.6l-5.6-5.6-1.867 1.867 7.467 7.467 16-16-1.867-1.867-14.133 14.133z"></path></symbol><symbol id="checkbox-box" viewBox="0 0 32 32"><title>checkbox-box</title><path d="M25.333 4h-18.667c-1.48 0-2.667 1.2-2.667 2.667v18.667c0 1.467 1.187 2.667 2.667 2.667h18.667c1.48 0 2.667-1.2 2.667-2.667v-18.667c0-1.467-1.187-2.667-2.667-2.667zM13.333 22.667l-6.667-6.667 1.88-1.88 4.787 4.773 10.12-10.12 1.88 1.893-12 12z"></path></symbol><symbol id="checkbox-box-outline" viewBox="0 0 32 32"><title>checkbox-box-outline</title><path d="M25.333 6.667v18.667h-18.667v-18.667h18.667zM25.333 4h-18.667c-1.467 0-2.667 1.2-2.667 2.667v18.667c0 1.467 1.2 2.667 2.667 2.667h18.667c1.467 0 2.667-1.2 2.667-2.667v-18.667c0-1.467-1.2-2.667-2.667-2.667z"></path></symbol><symbol id="checkbox-circle" viewBox="0 0 32 32"><title>checkbox-circle</title><path d="M16 2.667c-7.36 0-13.333 5.973-13.333 13.333s5.973 13.333 13.333 13.333 13.333-5.973 13.333-13.333-5.973-13.333-13.333-13.333zM13.333 22.667l-6.667-6.667 1.88-1.88 4.787 4.773 10.12-10.12 1.88 1.893-12 12z"></path></symbol><symbol id="checkbox-circle-outline" viewBox="0 0 32 32"><title>checkbox-circle-outline</title><path d="M16 2.667c-7.36 0-13.333 5.973-13.333 13.333s5.973 13.333 13.333 13.333 13.333-5.973 13.333-13.333-5.973-13.333-13.333-13.333zM16 26.667c-5.893 0-10.667-4.773-10.667-10.667s4.773-10.667 10.667-10.667 10.667 4.773 10.667 10.667-4.773 10.667-10.667 10.667z"></path></symbol><symbol id="circle" viewBox="0 0 32 32"><title>circle</title><path d="M16 2.667c-7.36 0-13.333 5.973-13.333 13.333s5.973 13.333 13.333 13.333 13.333-5.973 13.333-13.333-5.973-13.333-13.333-13.333z"></path></symbol><symbol id="close" viewBox="0 0 32 32"><title>close</title><path d="M25.333 8.547l-1.88-1.88-7.453 7.453-7.453-7.453-1.88 1.88 7.453 7.453-7.453 7.453 1.88 1.88 7.453-7.453 7.453 7.453 1.88-1.88-7.453-7.453z"></path></symbol><symbol id="coupon" viewBox="0 0 32 32"><title>coupon</title><path d="M26.667 16c0-1.467 1.2-2.667 2.667-2.667v-5.333c0-1.467-1.2-2.667-2.667-2.667h-21.333c-1.467 0-2.653 1.2-2.653 2.667v5.333c1.467 0 2.653 1.2 2.653 2.667s-1.187 2.667-2.667 2.667v5.333c0 1.467 1.2 2.667 2.667 2.667h21.333c1.467 0 2.667-1.2 2.667-2.667v-5.333c-1.467 0-2.667-1.2-2.667-2.667zM20.773 22.4l-4.773-3.067-4.773 3.067 1.44-5.493-4.387-3.587 5.653-0.333 2.067-5.253 2.053 5.267 5.653 0.333-4.387 3.587 1.453 5.48z"></path></symbol><symbol id="edit" viewBox="0 0 32 32"><title>edit</title><path d="M4 23v5h5l14.747-14.747-5-5-14.747 14.747zM27.613 9.387c0.52-0.52 0.52-1.36 0-1.88l-3.12-3.12c-0.52-0.52-1.36-0.52-1.88 0l-2.44 2.44 5 5 2.44-2.44z"></path></symbol><symbol id="error" viewBox="0 0 32 32"><title>error</title><path d="M16 2.667c-7.36 0-13.333 5.973-13.333 13.333s5.973 13.333 13.333 13.333 13.333-5.973 13.333-13.333-5.973-13.333-13.333-13.333zM17.333 22.667h-2.667v-2.667h2.667v2.667zM17.333 17.333h-2.667v-8h2.667v8z"></path></symbol><symbol id="error-outline" viewBox="0 0 32 32"><title>error-outline</title><path d="M14.667 20h2.667v2.667h-2.667zM14.667 9.333h2.667v8h-2.667zM15.987 2.667c-7.36 0-13.32 5.973-13.32 13.333s5.96 13.333 13.32 13.333c7.373 0 13.347-5.973 13.347-13.333s-5.973-13.333-13.347-13.333zM16 26.667c-5.893 0-10.667-4.773-10.667-10.667s4.773-10.667 10.667-10.667 10.667 4.773 10.667 10.667-4.773 10.667-10.667 10.667z"></path></symbol><symbol id="group" viewBox="0 0 32 32"><title>group</title><path d="M21.333 14.667c2.213 0 3.987-1.787 3.987-4s-1.773-4-3.987-4c-2.213 0-4 1.787-4 4s1.787 4 4 4zM10.667 14.667c2.213 0 3.987-1.787 3.987-4s-1.773-4-3.987-4c-2.213 0-4 1.787-4 4s1.787 4 4 4zM10.667 17.333c-3.107 0-9.333 1.56-9.333 4.667v3.333h18.667v-3.333c0-3.107-6.227-4.667-9.333-4.667zM21.333 17.333c-0.387 0-0.827 0.027-1.293 0.067 1.547 1.12 2.627 2.627 2.627 4.6v3.333h8v-3.333c0-3.107-6.227-4.667-9.333-4.667z"></path></symbol><symbol id="group-add" viewBox="0 0 32 32"><title>group-add</title><path d="M10.667 13.333h-4v-4h-2.667v4h-4v2.667h4v4h2.667v-4h4v-2.667zM24 14.667c2.213 0 3.987-1.787 3.987-4s-1.773-4-3.987-4c-0.427 0-0.84 0.067-1.213 0.187 0.76 1.080 1.2 2.387 1.2 3.813s-0.453 2.72-1.2 3.813c0.373 0.12 0.787 0.187 1.213 0.187zM17.333 14.667c2.213 0 3.987-1.787 3.987-4s-1.773-4-3.987-4c-2.213 0-4 1.787-4 4s1.787 4 4 4zM26.16 17.547c1.107 0.973 1.84 2.213 1.84 3.787v2.667h4v-2.667c0-2.053-3.16-3.32-5.84-3.787zM17.333 17.333c-2.667 0-8 1.333-8 4v2.667h16v-2.667c0-2.667-5.333-4-8-4z"></path></symbol><symbol id="group-outline" viewBox="0 0 32 32"><title>group-outline</title><path d="M22 17.333c-1.6 0-4.093 0.453-6 1.333-1.907-0.893-4.4-1.333-6-1.333-2.893 0-8.667 1.44-8.667 4.333v3.667h29.333v-3.667c0-2.893-5.773-4.333-8.667-4.333zM16.667 23.333h-13.333v-1.667c0-0.72 3.413-2.333 6.667-2.333s6.667 1.613 6.667 2.333v1.667zM28.667 23.333h-10v-1.667c0-0.613-0.267-1.147-0.693-1.627 1.173-0.4 2.613-0.707 4.027-0.707 3.253 0 6.667 1.613 6.667 2.333v1.667zM10 16c2.573 0 4.667-2.093 4.667-4.667s-2.093-4.667-4.667-4.667-4.667 2.093-4.667 4.667 2.093 4.667 4.667 4.667zM10 8.667c1.467 0 2.667 1.2 2.667 2.667s-1.2 2.667-2.667 2.667-2.667-1.2-2.667-2.667 1.2-2.667 2.667-2.667zM22 16c2.573 0 4.667-2.093 4.667-4.667s-2.093-4.667-4.667-4.667-4.667 2.093-4.667 4.667 2.093 4.667 4.667 4.667zM22 8.667c1.467 0 2.667 1.2 2.667 2.667s-1.2 2.667-2.667 2.667-2.667-1.2-2.667-2.667 1.2-2.667 2.667-2.667z"></path></symbol><symbol id="help" viewBox="0 0 32 32"><title>help</title><path d="M16 2.667c-7.36 0-13.333 5.973-13.333 13.333s5.973 13.333 13.333 13.333 13.333-5.973 13.333-13.333-5.973-13.333-13.333-13.333zM17.333 25.333h-2.667v-2.667h2.667v2.667zM20.093 15l-1.2 1.227c-0.96 0.973-1.56 1.773-1.56 3.773h-2.667v-0.667c0-1.467 0.6-2.8 1.56-3.773l1.653-1.68c0.493-0.48 0.787-1.147 0.787-1.88 0-1.467-1.2-2.667-2.667-2.667s-2.667 1.2-2.667 2.667h-2.667c0-2.947 2.387-5.333 5.333-5.333s5.333 2.387 5.333 5.333c0 1.173-0.48 2.24-1.24 3z"></path></symbol><symbol id="help-outline" viewBox="0 0 32 32"><title>help-outline</title><path d="M14.667 24h2.667v-2.667h-2.667v2.667zM16 2.667c-7.36 0-13.333 5.973-13.333 13.333s5.973 13.333 13.333 13.333 13.333-5.973 13.333-13.333-5.973-13.333-13.333-13.333zM16 26.667c-5.88 0-10.667-4.787-10.667-10.667s4.787-10.667 10.667-10.667 10.667 4.787 10.667 10.667-4.787 10.667-10.667 10.667zM16 8c-2.947 0-5.333 2.387-5.333 5.333h2.667c0-1.467 1.2-2.667 2.667-2.667s2.667 1.2 2.667 2.667c0 2.667-4 2.333-4 6.667h2.667c0-3 4-3.333 4-6.667 0-2.947-2.387-5.333-5.333-5.333z"></path></symbol><symbol id="info" viewBox="0 0 32 32"><title>info</title><path d="M16 2.667c-7.36 0-13.333 5.973-13.333 13.333s5.973 13.333 13.333 13.333 13.333-5.973 13.333-13.333-5.973-13.333-13.333-13.333zM17.333 22.667h-2.667v-8h2.667v8zM17.333 12h-2.667v-2.667h2.667v2.667z"></path></symbol><symbol id="info-outline" viewBox="0 0 32 32"><title>info-outline</title><path d="M14.667 22.667h2.667v-8h-2.667v8zM16 2.667c-7.36 0-13.333 5.973-13.333 13.333s5.973 13.333 13.333 13.333 13.333-5.973 13.333-13.333-5.973-13.333-13.333-13.333zM16 26.667c-5.88 0-10.667-4.787-10.667-10.667s4.787-10.667 10.667-10.667 10.667 4.787 10.667 10.667-4.787 10.667-10.667 10.667zM14.667 12h2.667v-2.667h-2.667v2.667z"></path></symbol><symbol id="location" viewBox="0 0 32 32"><title>location</title><path d="M16 2.667c-5.16 0-9.333 4.173-9.333 9.333 0 7 9.333 17.333 9.333 17.333s9.333-10.333 9.333-17.333c0-5.16-4.173-9.333-9.333-9.333zM16 15.333c-1.84 0-3.333-1.493-3.333-3.333s1.493-3.333 3.333-3.333 3.333 1.493 3.333 3.333-1.493 3.333-3.333 3.333z"></path></symbol><symbol id="loop" viewBox="0 0 32 32"><title>loop</title><path d="M27.803 5.197c-2.925-3.195-7.129-5.197-11.803-5.197-8.836 0-16 7.164-16 16h3c0-7.18 5.82-13 13-13 3.844 0 7.299 1.669 9.677 4.323l-4.679 4.677h11v-11l-4.197 4.197zM29 16c0 7.18-5.82 13-13 13-3.844 0-7.299-1.669-9.677-4.323l4.677-4.677h-11v11l4.197-4.197c2.925 3.195 7.129 5.197 11.803 5.197 8.836 0 16-7.164 16-16h-3z"></path></symbol><symbol id="mail" viewBox="0 0 32 32"><title>mail</title><path d="M26.667 5.333h-21.333c-1.467 0-2.653 1.2-2.653 2.667l-0.013 16c0 1.467 1.2 2.667 2.667 2.667h21.333c1.467 0 2.667-1.2 2.667-2.667v-16c0-1.467-1.2-2.667-2.667-2.667zM26.667 10.667l-10.667 6.667-10.667-6.667v-2.667l10.667 6.667 10.667-6.667v2.667z"></path></symbol><symbol id="payment" viewBox="0 0 32 32"><title>payment</title><path d="M26.667 5.333h-21.333c-1.48 0-2.653 1.187-2.653 2.667l-0.013 16c0 1.48 1.187 2.667 2.667 2.667h21.333c1.48 0 2.667-1.187 2.667-2.667v-16c0-1.48-1.187-2.667-2.667-2.667zM26.667 24h-21.333v-8h21.333v8zM26.667 10.667h-21.333v-2.667h21.333v2.667z"></path></symbol><symbol id="person" viewBox="0 0 32 32"><title>person</title><path d="M16 16c2.947 0 5.333-2.387 5.333-5.333s-2.387-5.333-5.333-5.333-5.333 2.387-5.333 5.333 2.387 5.333 5.333 5.333zM16 18.667c-3.56 0-10.667 1.787-10.667 5.333v2.667h21.333v-2.667c0-3.547-7.107-5.333-10.667-5.333z"></path></symbol><symbol id="person-add" viewBox="0 0 32 32"><title>person-add</title><path d="M20 16c2.947 0 5.333-2.387 5.333-5.333s-2.387-5.333-5.333-5.333-5.333 2.387-5.333 5.333 2.387 5.333 5.333 5.333zM8 13.333v-4h-2.667v4h-4v2.667h4v4h2.667v-4h4v-2.667h-4zM20 18.667c-3.56 0-10.667 1.787-10.667 5.333v2.667h21.333v-2.667c0-3.547-7.107-5.333-10.667-5.333z"></path></symbol><symbol id="person-outline" viewBox="0 0 32 32"><title>person-outline</title><path d="M16 7.867c1.547 0 2.8 1.253 2.8 2.8s-1.253 2.8-2.8 2.8-2.8-1.253-2.8-2.8 1.253-2.8 2.8-2.8zM16 19.867c3.96 0 8.133 1.947 8.133 2.8v1.467h-16.267v-1.467c0-0.853 4.173-2.8 8.133-2.8zM16 5.333c-2.947 0-5.333 2.387-5.333 5.333s2.387 5.333 5.333 5.333 5.333-2.387 5.333-5.333-2.387-5.333-5.333-5.333zM16 17.333c-3.56 0-10.667 1.787-10.667 5.333v4h21.333v-4c0-3.547-7.107-5.333-10.667-5.333z"></path></symbol><symbol id="phone" viewBox="0 0 32 32"><title>phone</title><path d="M22.667 1.347l-13.333-0.013c-1.467 0-2.667 1.2-2.667 2.667v24c0 1.467 1.2 2.667 2.667 2.667h13.333c1.467 0 2.667-1.2 2.667-2.667v-24c0-1.467-1.2-2.653-2.667-2.653zM22.667 25.333h-13.333v-18.667h13.333v18.667z"></path></symbol><symbol id="phone-android" viewBox="0 0 32 32"><title>phone-android</title><path d="M21.333 1.333h-10.667c-2.213 0-4 1.787-4 4v21.333c0 2.213 1.787 4 4 4h10.667c2.213 0 4-1.787 4-4v-21.333c0-2.213-1.787-4-4-4zM18.667 28h-5.333v-1.333h5.333v1.333zM23 24h-14v-18.667h14v18.667z"></path></symbol><symbol id="phone-iphone" viewBox="0 0 32 32"><title>phone-iphone</title><path d="M20.667 1.333h-10.667c-1.84 0-3.333 1.493-3.333 3.333v22.667c0 1.84 1.493 3.333 3.333 3.333h10.667c1.84 0 3.333-1.493 3.333-3.333v-22.667c0-1.84-1.493-3.333-3.333-3.333zM15.333 29.333c-1.107 0-2-0.893-2-2s0.893-2 2-2 2 0.893 2 2-0.893 2-2 2zM21.333 24h-12v-18.667h12v18.667z"></path></symbol><symbol id="radio-button" viewBox="0 0 32 32"><title>radio-button</title><path d="M16 9.333c-3.68 0-6.667 2.987-6.667 6.667s2.987 6.667 6.667 6.667 6.667-2.987 6.667-6.667-2.987-6.667-6.667-6.667zM16 2.667c-7.36 0-13.333 5.973-13.333 13.333s5.973 13.333 13.333 13.333 13.333-5.973 13.333-13.333-5.973-13.333-13.333-13.333zM16 26.667c-5.893 0-10.667-4.773-10.667-10.667s4.773-10.667 10.667-10.667 10.667 4.773 10.667 10.667-4.773 10.667-10.667 10.667z"></path></symbol><symbol id="radio-button-outline" viewBox="0 0 32 32"><title>radio-button-outline</title><path d="M16 2.667c-7.36 0-13.333 5.973-13.333 13.333s5.973 13.333 13.333 13.333 13.333-5.973 13.333-13.333-5.973-13.333-13.333-13.333zM16 26.667c-5.893 0-10.667-4.773-10.667-10.667s4.773-10.667 10.667-10.667 10.667 4.773 10.667 10.667-4.773 10.667-10.667 10.667z"></path></symbol><symbol id="refresh" viewBox="0 0 32 32"><title>refresh</title><path d="M32 12h-12l4.485-4.485c-2.267-2.267-5.28-3.515-8.485-3.515s-6.219 1.248-8.485 3.515c-2.267 2.267-3.515 5.28-3.515 8.485s1.248 6.219 3.515 8.485c2.267 2.267 5.28 3.515 8.485 3.515s6.219-1.248 8.485-3.515c0.189-0.189 0.371-0.384 0.545-0.584l3.011 2.633c-2.933 3.349-7.24 5.464-12.041 5.464-8.836 0-16-7.164-16-16s7.164-16 16-16c4.419 0 8.417 1.792 11.313 4.687l4.687-4.687v12z"></path></symbol><symbol id="refresh2" viewBox="0 0 32 32"><title>refresh2</title><path d="M23.533 8.467c-1.933-1.933-4.587-3.133-7.533-3.133-5.893 0-10.653 4.773-10.653 10.667s4.76 10.667 10.653 10.667c4.973 0 9.12-3.4 10.307-8h-2.773c-1.093 3.107-4.053 5.333-7.533 5.333-4.413 0-8-3.587-8-8s3.587-8 8-8c2.213 0 4.187 0.92 5.627 2.373l-4.293 4.293h9.333v-9.333l-3.133 3.133z"></path></symbol><symbol id="remove" viewBox="0 0 32 32"><title>remove</title><path d="M25.333 17.333h-18.667v-2.667h18.667v2.667z"></path></symbol><symbol id="remove-circle" viewBox="0 0 32 32"><title>remove-circle</title><path d="M16 2.667c-7.36 0-13.333 5.973-13.333 13.333s5.973 13.333 13.333 13.333 13.333-5.973 13.333-13.333-5.973-13.333-13.333-13.333zM22.667 17.333h-13.333v-2.667h13.333v2.667z"></path></symbol><symbol id="remove-circle-outline" viewBox="0 0 32 32"><title>remove-circle-outline</title><path d="M9.333 14.667v2.667h13.333v-2.667h-13.333zM16 2.667c-7.36 0-13.333 5.973-13.333 13.333s5.973 13.333 13.333 13.333 13.333-5.973 13.333-13.333-5.973-13.333-13.333-13.333zM16 26.667c-5.88 0-10.667-4.787-10.667-10.667s4.787-10.667 10.667-10.667 10.667 4.787 10.667 10.667-4.787 10.667-10.667 10.667z"></path></symbol><symbol id="search" viewBox="0 0 32 32"><title>search</title><path d="M20.667 18.667h-1.053l-0.373-0.36c1.307-1.52 2.093-3.493 2.093-5.64 0-4.787-3.88-8.667-8.667-8.667s-8.667 3.88-8.667 8.667 3.88 8.667 8.667 8.667c2.147 0 4.12-0.787 5.64-2.093l0.36 0.373v1.053l6.667 6.653 1.987-1.987-6.653-6.667zM12.667 18.667c-3.32 0-6-2.68-6-6s2.68-6 6-6 6 2.68 6 6-2.68 6-6 6z"></path></symbol><symbol id="spinner" viewBox="0 0 32 32"><title>spinner</title><path d="M12 4c0-2.209 1.791-4 4-4s4 1.791 4 4-1.791 4-4 4-4-1.791-4-4zM20.485 7.515c0-2.209 1.791-4 4-4s4 1.791 4 4-1.791 4-4 4-4-1.791-4-4zM26 16c0-1.104 0.896-2 2-2s2 0.896 2 2-0.896 2-2 2-2-0.896-2-2zM22.485 24.485c0-1.104 0.896-2 2-2s2 0.896 2 2-0.896 2-2 2-2-0.896-2-2zM14 28c0-1.104 0.896-2 2-2s2 0.896 2 2-0.896 2-2 2-2-0.896-2-2zM5.515 24.485c0-1.104 0.896-2 2-2s2 0.896 2 2-0.896 2-2 2-2-0.896-2-2zM4.515 7.515c0-1.657 1.343-3 3-3s3 1.343 3 3-1.343 3-3 3-3-1.343-3-3zM1.751 16c0-1.243 1.008-2.251 2.251-2.251s2.251 1.008 2.251 2.251c0 1.243-1.008 2.251-2.251 2.251s-2.251-1.008-2.251-2.251z"></path></symbol><symbol id="spinner-curve" viewBox="0 0 32 32"><title>spinner-curve</title><path d="M32 16c-0.040-2.089-0.493-4.172-1.331-6.077-0.835-1.907-2.045-3.633-3.532-5.060s-3.248-2.557-5.156-3.301c-1.907-0.748-3.956-1.105-5.981-1.061-2.025 0.040-4.041 0.48-5.885 1.292-1.845 0.809-3.517 1.984-4.897 3.424s-2.473 3.147-3.193 4.993c-0.723 1.845-1.067 3.829-1.023 5.789 0.040 1.961 0.468 3.911 1.255 5.693 0.784 1.784 1.921 3.401 3.316 4.736s3.045 2.391 4.832 3.085c1.785 0.697 3.701 1.028 5.599 0.985 1.897-0.040 3.78-0.455 5.503-1.216 1.724-0.759 3.285-1.859 4.573-3.208s2.308-2.945 2.977-4.669c0.407-1.045 0.684-2.137 0.829-3.244l0.117 0.004c1.104 0 2-0.896 2-2l-0.008-0.167h0.008zM28.823 21.311c-0.733 1.663-1.796 3.169-3.099 4.412s-2.844 2.224-4.508 2.868c-1.664 0.647-3.447 0.952-5.215 0.909-1.769-0.040-3.519-0.429-5.12-1.14-1.601-0.708-3.052-1.735-4.249-2.991s-2.141-2.743-2.76-4.345c-0.621-1.603-0.913-3.319-0.871-5.024 0.041-1.705 0.416-3.388 1.101-4.928 0.683-1.54 1.672-2.936 2.883-4.088s2.641-2.059 4.184-2.652c1.541-0.596 3.192-0.875 4.832-0.832 1.64 0.041 3.257 0.404 4.736 1.064 1.48 0.657 2.82 1.609 3.925 2.775s1.975 2.54 2.544 4.021c0.571 1.481 0.837 3.064 0.795 4.64h0.008l-0.008 0.167c0 1.032 0.781 1.88 1.784 1.988-0.195 1.088-0.516 2.151-0.961 3.156z"></path></symbol><symbol id="spinner-sun" viewBox="0 0 32 32"><title>spinner-sun</title><path d="M16 9.472c-1.031 0-1.865-0.835-1.865-1.865v-5.596c0-1.031 0.835-1.865 1.865-1.865s1.865 0.835 1.865 1.865v5.596c0 1.031-0.835 1.865-1.865 1.865zM16 31.155c-0.644 0-1.165-0.521-1.165-1.165v-5.596c0-0.644 0.521-1.165 1.165-1.165s1.165 0.521 1.165 1.165v5.596c0 0.644-0.521 1.165-1.165 1.165zM11.805 10.48c-0.604 0-1.192-0.313-1.516-0.875l-2.797-4.845c-0.483-0.836-0.196-1.905 0.64-2.389s1.905-0.196 2.389 0.64l2.797 4.845c0.483 0.836 0.196 1.905-0.64 2.389-0.275 0.159-0.576 0.235-0.873 0.235zM22.996 29.164c-0.363 0-0.715-0.188-0.909-0.525l-2.797-4.845c-0.289-0.501-0.117-1.144 0.384-1.433s1.144-0.117 1.433 0.384l2.797 4.845c0.289 0.501 0.117 1.144-0.384 1.433-0.165 0.095-0.345 0.141-0.524 0.141zM8.729 13.436c-0.277 0-0.557-0.071-0.815-0.219l-4.847-2.797c-0.78-0.451-1.048-1.449-0.597-2.229s1.449-1.048 2.229-0.597l4.845 2.797c0.78 0.451 1.048 1.449 0.597 2.229-0.303 0.524-0.851 0.816-1.415 0.816zM28.113 23.927c-0.159 0-0.319-0.040-0.465-0.125l-4.845-2.797c-0.447-0.257-0.599-0.828-0.341-1.275s0.828-0.599 1.273-0.341l4.845 2.797c0.447 0.257 0.599 0.828 0.341 1.273-0.173 0.299-0.487 0.467-0.808 0.467zM7.607 17.516h-5.596c-0.837 0-1.516-0.679-1.516-1.516s0.679-1.516 1.516-1.516h5.596c0.837 0 1.516 0.679 1.516 1.516s-0.679 1.516-1.516 1.516zM29.989 16.932h-5.596c-0.515 0-0.932-0.417-0.932-0.932s0.417-0.932 0.932-0.932h5.596c0.515 0 0.932 0.417 0.932 0.932s-0.417 0.932-0.932 0.932zM3.887 24.393c-0.484 0-0.953-0.251-1.213-0.7-0.387-0.669-0.157-1.525 0.512-1.911l4.847-2.797c0.669-0.387 1.525-0.157 1.911 0.512s0.157 1.525-0.512 1.911l-4.845 2.797c-0.22 0.127-0.461 0.188-0.699 0.188zM23.269 12.736c-0.323 0-0.636-0.167-0.808-0.467-0.257-0.447-0.105-1.016 0.341-1.275l4.845-2.797c0.447-0.257 1.016-0.105 1.275 0.341s0.105 1.016-0.341 1.275l-4.845 2.797c-0.147 0.085-0.307 0.125-0.465 0.125zM9.004 29.397c-0.217 0-0.439-0.056-0.64-0.172-0.613-0.355-0.824-1.139-0.469-1.752l2.797-4.845c0.355-0.613 1.139-0.824 1.752-0.469s0.824 1.139 0.469 1.752l-2.797 4.845c-0.237 0.412-0.668 0.641-1.112 0.641zM20.196 9.664c-0.159 0-0.319-0.040-0.465-0.125-0.447-0.257-0.599-0.828-0.341-1.273l2.797-4.845c0.257-0.447 0.828-0.599 1.273-0.341s0.599 0.828 0.341 1.273l-2.797 4.845c-0.173 0.299-0.487 0.467-0.808 0.467z"></path></symbol><symbol id="star" viewBox="0 0 32 32"><title>star</title><path d="M16 23.027l8.24 4.973-2.187-9.373 7.28-6.307-9.587-0.813-3.747-8.84-3.747 8.84-9.587 0.813 7.28 6.307-2.187 9.373z"></path></symbol><symbol id="star-half" viewBox="0 0 32 32"><title>star-half</title><path d="M29.333 12.987l-9.587-0.827-3.747-8.827-3.747 8.84-9.587 0.813 7.28 6.307-2.187 9.373 8.24-4.973 8.24 4.973-2.173-9.373 7.267-6.307zM16 21.2v-12.4l2.28 5.387 5.84 0.507-4.427 3.84 1.333 5.707-5.027-3.040z"></path></symbol><symbol id="star-outline" viewBox="0 0 32 32"><title>star-outline</title><path d="M29.333 12.32l-9.587-0.827-3.747-8.827-3.747 8.84-9.587 0.813 7.28 6.307-2.187 9.373 8.24-4.973 8.24 4.973-2.173-9.373 7.267-6.307zM16 20.533l-5.013 3.027 1.333-5.707-4.427-3.84 5.84-0.507 2.267-5.373 2.28 5.387 5.84 0.507-4.427 3.84 1.333 5.707-5.027-3.040z"></path></symbol><symbol id="sync" viewBox="0 0 32 32"><title>sync</title><path d="M16 32c-4.273 0-8.292-1.664-11.313-4.687s-4.687-7.040-4.687-11.313c0-3.027 0.849-5.973 2.456-8.521 1.563-2.477 3.771-4.48 6.387-5.791l1.344 2.683c-2.127 1.065-3.921 2.693-5.192 4.708-1.304 2.069-1.995 4.463-1.995 6.921 0 7.168 5.832 13 13 13s13-5.832 13-13c0-2.459-0.689-4.852-1.995-6.921-1.271-2.015-3.067-3.643-5.192-4.708l1.344-2.683c2.616 1.311 4.824 3.312 6.387 5.791 1.607 2.549 2.456 5.496 2.456 8.521 0 4.273-1.664 8.292-4.687 11.313s-7.040 4.687-11.313 4.687z"></path></symbol><symbol id="time" viewBox="0 0 32 32"><title>time</title><path d="M15.987 2.667c-7.36 0-13.32 5.973-13.32 13.333s5.96 13.333 13.32 13.333c7.373 0 13.347-5.973 13.347-13.333s-5.973-13.333-13.347-13.333zM16 26.667c-5.893 0-10.667-4.773-10.667-10.667s4.773-10.667 10.667-10.667 10.667 4.773 10.667 10.667-4.773 10.667-10.667 10.667z"></path></symbol><path d="M16.667 9.333h-2v8l7 4.2 1-1.64-6-3.56z"></path><symbol id="time-alarm" viewBox="0 0 32 32"><title>time-alarm</title><path d="M29.333 7.627l-6.133-5.147-1.72 2.040 6.133 5.147 1.72-2.040zM10.507 4.52l-1.707-2.040-6.133 5.133 1.72 2.040 6.12-5.133zM16.667 10.667h-2v8l6.333 3.8 1-1.64-5.333-3.16v-7zM16 5.333c-6.627 0-12 5.373-12 12s5.36 12 12 12c6.627 0 12-5.373 12-12s-5.373-12-12-12zM16 26.667c-5.16 0-9.333-4.173-9.333-9.333s4.173-9.333 9.333-9.333 9.333 4.173 9.333 9.333-4.173 9.333-9.333 9.333z"></path></symbol><symbol id="timer" viewBox="0 0 32 32"><title>timer</title><path d="M20 1.333h-8v2.667h8v-2.667zM14.667 18.667h2.667v-8h-2.667v8zM25.373 9.853l1.893-1.893c-0.573-0.68-1.2-1.32-1.88-1.88l-1.893 1.893c-2.067-1.653-4.667-2.64-7.493-2.64-6.627 0-12 5.373-12 12s5.36 12 12 12 12-5.373 12-12c0-2.827-0.987-5.427-2.627-7.48zM16 26.667c-5.16 0-9.333-4.173-9.333-9.333s4.173-9.333 9.333-9.333 9.333 4.173 9.333 9.333-4.173 9.333-9.333 9.333z"></path></symbol></defs></svg>
