<svg viewBox="0 0 32 32"><path d="M27.607 18.75q.821.464 1.063 1.384t-.223 1.741l-1.143 1.964q-.464.821-1.384 1.063t-1.741-.223l-4.75-2.732v5.482q0 .929-.679 1.607t-1.607.679h-2.286q-.929 0-1.607-.679t-.679-1.607v-5.482l-4.75 2.732q-.821.464-1.741.223t-1.384-1.063l-1.143-1.964q-.464-.821-.223-1.741t1.063-1.384l4.75-2.75-4.75-2.75q-.821-.464-1.063-1.384t.223-1.741l1.143-1.964q.464-.821 1.384-1.063t1.741.223l4.75 2.732v-5.482q0-.929.679-1.607t1.607-.679h2.286q.929 0 1.607.679t.679 1.607v5.482l4.75-2.732q.821-.464 1.741-.223t1.384 1.063l1.143 1.964q.464.821.223 1.741t-1.063 1.384l-4.75 2.75z"/></svg>
