<svg viewBox="0 0 32 32"><path d="M3.429 29.714h5.143v-5.143h-5.143v5.143zm6.285 0h5.714v-5.143h-5.714v5.143zm-6.285-6.285h5.143v-5.714h-5.143v5.714zm6.285 0h5.714v-5.714h-5.714v5.714zm-6.285-6.858h5.143v-5.143h-5.143v5.143zm13.142 13.143h5.714v-5.143h-5.714v5.143zm-6.857-13.143h5.714v-5.143h-5.714v5.143zm13.715 13.143h5.143v-5.143h-5.143v5.143zm-6.858-6.285h5.714v-5.714h-5.714v5.714zm-6.285-15.429v-5.143q0-.232-.17-.402t-.402-.17h-1.143q-.232 0-.402.17t-.17.402v5.143q0 .232.17.402t.402.17h1.143q.232 0 .402-.17t.17-.402zm13.143 15.429h5.143v-5.714h-5.143v5.714zm-6.858-6.858h5.714v-5.143h-5.714v5.143zm6.858 0h5.143v-5.143h-5.143v5.143zm.571-8.571v-5.143q0-.232-.17-.402t-.402-.17h-1.143q-.232 0-.402.17t-.17.402v5.143q0 .232.17.402t.402.17h1.143q.232 0 .402-.17t.17-.402zm6.857-1.143v22.857q0 .929-.679 1.607t-1.607.679h-25.143q-.929 0-1.607-.679t-.679-1.607v-22.857q0-.929.679-1.607t1.607-.679h2.286v-1.714q0-1.179.839-2.018t2.018-.839h1.143q1.179 0 2.018.839t.839 2.018v1.714h6.857v-1.714q0-1.179.839-2.018t2.018-.839h1.143q1.179 0 2.018.839t.839 2.018v1.714h2.286q.929 0 1.607.679t.679 1.607z"/></svg>
