<svg viewBox="0 0 32 32"><path d="M10 25c-.828 0-1.5.672-1.5 1.5s.672 1.5 1.5 1.5 1.5-.672 1.5-1.5-.672-1.5-1.5-1.5zm0 2c-.276 0-.5-.224-.5-.5s.224-.5.5-.5.5.224.5.5-.224.5-.5.5zM24.031 25c-.828 0-1.5.672-1.5 1.5s.672 1.5 1.5 1.5 1.5-.672 1.5-1.5-.672-1.5-1.5-1.5zm0 2c-.276 0-.5-.224-.5-.5s.224-.5.5-.5.5.224.5.5-.224.5-.5.5zM28 8l-20.301-2.022c-.102-.436-.273-.916-.74-1.292-.582-.468-1.522-.686-2.959-.686v1c1.163 0 1.948.157 2.332.465.279.224.353.526.448.999h-.002l2.628 14.602c.151.901.45 1.576.831 2.062.453.578 1.046.871 1.763.871h15v-1h-15c-.295 0-1.196.008-1.609-2.11l-.339-1.885 16.949-3.005 1-8zm-1.838 7.147l-16.288 2.874-1.983-11.019 18.992 1.913-.721 6.231z"/></svg>
