<svg viewBox="0 0 32 32"><path d="M16 5c0.8 0 1.4 0.3 1.9 0.8s0.8 1.2 0.8 1.9v0.5c0.2 0.1 0.5 0.2 0.8 0.3l0.3-0.3c0.5-0.5 1.2-0.8 1.9-0.8 0.8 0 1.4 0.3 1.9 0.8s0.8 1.2 0.8 1.9c0 0.8-0.3 1.4-0.8 1.9l-0.3 0.3c0.1 0.3 0.3 0.6 0.3 0.8h0.5c0.8 0 1.4 0.3 1.9 0.8s0.8 1.2 0.8 1.9c0 0.8-0.3 1.4-0.8 1.9s-1.2 0.8-1.9 0.8h-0.5c-0.1 0.2-0.2 0.5-0.3 0.8l0.3 0.3c0.5 0.5 0.8 1.2 0.8 1.9 0 0.8-0.3 1.4-0.8 1.9s-1.2 0.8-1.9 0.8c-0.8 0-1.4-0.3-1.9-0.8l-0.3-0.3c-0.3 0.1-0.6 0.3-0.8 0.3v0.5c0 0.8-0.3 1.4-0.8 1.9-0.5 0.9-1.1 1.2-1.9 1.2s-1.4-0.3-1.9-0.8-0.8-1.2-0.8-1.9v-0.5c-0.2-0.1-0.5-0.2-0.8-0.3l-0.3 0.3c-0.5 0.5-1.2 0.8-1.9 0.8-0.8 0-1.4-0.3-1.9-0.8s-0.8-1.2-0.8-1.9c0-0.8 0.3-1.4 0.8-1.9l0.3-0.3c-0.1-0.3-0.3-0.6-0.3-0.8h-0.7c-0.8 0-1.4-0.3-1.9-0.8s-0.8-1.3-0.8-2.1c0-0.8 0.3-1.4 0.8-1.9s1.2-0.8 1.9-0.8h0.5c0.1-0.2 0.2-0.5 0.3-0.8l-0.3-0.3c-0.5-0.5-0.8-1.2-0.8-1.9 0-0.8 0.3-1.4 0.8-1.9s1.2-0.8 1.9-0.8c0.8 0 1.4 0.3 1.9 0.8l0.3 0.3c0.3-0.1 0.6-0.3 0.8-0.3v-0.7c0-0.8 0.3-1.4 0.8-1.9 0.7-0.5 1.3-0.8 2.1-0.8zM16 6.8c-0.3 0-0.5 0.1-0.6 0.3-0.2 0.2-0.3 0.4-0.3 0.6v1.9c-1.1 0.2-2 0.6-2.9 1.2l-1.3-1.3c-0.2-0.2-0.4-0.3-0.6-0.3-0.3 0-0.5 0.1-0.6 0.3-0.2 0.2-0.3 0.4-0.3 0.6 0 0.3 0.1 0.5 0.3 0.7l1.3 1.3c-0.8 0.9-1.2 1.9-1.4 3h-1.9c-0.3 0-0.5 0.1-0.6 0.3-0.2 0.2-0.3 0.4-0.3 0.6 0 0.3 0.1 0.5 0.3 0.6 0.2 0.2 0.4 0.3 0.6 0.3h1.9c0.2 1.1 0.6 2 1.2 2.9l-1.3 1.3c-0.2 0.2-0.3 0.4-0.3 0.7s0.1 0.5 0.3 0.6c0.2 0.2 0.4 0.3 0.6 0.3s0.5-0.1 0.6-0.3l1.3-1.3c0.9 0.7 1.9 1.1 2.9 1.2v1.9c0 0.3 0.1 0.5 0.3 0.6 0.2 0.2 0.4 0.3 0.6 0.3 0.3 0 0.5-0.1 0.6-0.3 0.2-0.2 0.3-0.4 0.3-0.6v-1.9c1.1-0.2 2-0.6 2.9-1.2l1.3 1.3c0.2 0.2 0.4 0.3 0.7 0.3s0.5-0.1 0.6-0.3c0.2-0.2 0.3-0.4 0.3-0.6 0-0.3-0.1-0.5-0.3-0.7l-1.3-1.3c0.7-0.9 1.1-1.9 1.2-2.9h1.9c0.3 0 0.5-0.1 0.6-0.3 0.2-0.2 0.3-0.4 0.3-0.6 0-0.3-0.1-0.5-0.3-0.6-0.2-0.2-0.4-0.3-0.6-0.3h-1.9c-0.2-1.1-0.6-2-1.2-2.9l1.3-1.3c0.2-0.2 0.3-0.4 0.3-0.7s-0.1-0.5-0.3-0.6-0.4-0.3-0.6-0.3-0.5 0.1-0.7 0.3l-1.3 1.3c-0.6-0.7-1.6-1.1-2.7-1.3v-1.9c0-0.3-0.1-0.5-0.3-0.6-0.1-0.2-0.3-0.3-0.6-0.3 0 0 0 0 0 0zM16 12.3c1 0 1.9 0.4 2.6 1.1s1.1 1.6 1.1 2.6-0.4 1.9-1.1 2.6-1.6 1.1-2.6 1.1-1.9-0.4-2.6-1.1-1.1-1.6-1.1-2.6 0.4-1.9 1.1-2.6 1.6-1.1 2.6-1.1zM16 14.2c-0.5 0-0.9 0.2-1.3 0.5-0.4 0.4-0.5 0.8-0.5 1.3s0.2 0.9 0.5 1.3c0.4 0.4 0.8 0.5 1.3 0.5s0.9-0.2 1.3-0.5c0.4-0.4 0.5-0.8 0.5-1.3s-0.2-0.9-0.5-1.3-0.8-0.5-1.3-0.5z"></path></svg>
