<svg viewBox="0 0 32 32"><path d="M10.667 13.333h-4v-4h-2.667v4h-4v2.667h4v4h2.667v-4h4v-2.667zm13.333 1.334c2.213 0 3.987-1.787 3.987-4s-1.773-4-3.987-4c-.427 0-.84.067-1.213.187.76 1.08 1.2 2.387 1.2 3.813s-.453 2.72-1.2 3.813c.373.12.787.187 1.213.187zm-6.667 0c2.213 0 3.987-1.787 3.987-4s-1.773-4-3.987-4c-2.213 0-4 1.787-4 4s1.787 4 4 4zm8.827 2.88c1.107.973 1.84 2.213 1.84 3.787v2.667h4v-2.667c0-2.053-3.16-3.32-5.84-3.787zm-8.827-.214c-2.667 0-8 1.333-8 4v2.667h16v-2.667c0-2.667-5.333-4-8-4z"/></svg>
