<svg viewBox="0 0 32 32"><path d="M22 17.333c-1.6 0-4.093.453-6 1.333-1.907-.893-4.4-1.333-6-1.333-2.893 0-8.667 1.44-8.667 4.333v3.667h29.333v-3.667c0-2.893-5.773-4.333-8.667-4.333zm-5.333 6h-13.333v-1.667c0-.72 3.413-2.333 6.667-2.333s6.667 1.613 6.667 2.333v1.667zm12 0h-10v-1.667c0-.613-.267-1.147-.693-1.627 1.173-.4 2.613-.707 4.027-.707 3.253 0 6.667 1.613 6.667 2.333v1.667zm-18.667-7.333c2.573 0 4.667-2.093 4.667-4.667s-2.093-4.667-4.667-4.667-4.667 2.093-4.667 4.667 2.093 4.667 4.667 4.667zm0-7.333c1.467 0 2.667 1.2 2.667 2.667s-1.2 2.667-2.667 2.667-2.667-1.2-2.667-2.667 1.2-2.667 2.667-2.667zm12 7.333c2.573 0 4.667-2.093 4.667-4.667s-2.093-4.667-4.667-4.667-4.667 2.093-4.667 4.667 2.093 4.667 4.667 4.667zm0-7.333c1.467 0 2.667 1.2 2.667 2.667s-1.2 2.667-2.667 2.667-2.667-1.2-2.667-2.667 1.2-2.667 2.667-2.667z"/></svg>
