<svg viewBox="0 0 32 32"><path d="M32 16c-.04-2.089-.493-4.172-1.331-6.077-.835-1.907-2.045-3.633-3.532-5.06s-3.248-2.557-5.156-3.301c-1.907-.748-3.956-1.105-5.981-1.061-2.025.04-4.041.48-5.885 1.292-1.845.809-3.517 1.984-4.897 3.424s-2.473 3.147-3.193 4.993c-.723 1.845-1.067 3.829-1.023 5.789.04 1.961.468 3.911 1.255 5.693.784 1.784 1.921 3.401 3.316 4.736s3.045 2.391 4.832 3.085c1.785.697 3.701 1.028 5.599.985 1.897-.04 3.78-.455 5.503-1.216 1.724-.759 3.285-1.859 4.573-3.208s2.308-2.945 2.977-4.669c.407-1.045.684-2.137.829-3.244l.117.004c1.104 0 2-.896 2-2l-.008-.167h.008zm-3.177 5.311c-.733 1.663-1.796 3.169-3.099 4.412s-2.844 2.224-4.508 2.868c-1.664.647-3.447.952-5.215.909-1.769-.04-3.519-.429-5.12-1.14-1.601-.708-3.052-1.735-4.249-2.991s-2.141-2.743-2.76-4.345c-.621-1.603-.913-3.319-.871-5.024.041-1.705.416-3.388 1.101-4.928.683-1.54 1.672-2.936 2.883-4.088s2.641-2.059 4.184-2.652c1.541-.596 3.192-.875 4.832-.832 1.64.041 3.257.404 4.736 1.064 1.48.657 2.82 1.609 3.925 2.775s1.975 2.54 2.544 4.021c.571 1.481.837 3.064.795 4.64h.008l-.008.167c0 1.032.781 1.88 1.784 1.988-.195 1.088-.516 2.151-.961 3.156z"/></svg>
