<svg viewBox="0 0 32 32"><path d="M12 4c0-2.209 1.791-4 4-4s4 1.791 4 4-1.791 4-4 4-4-1.791-4-4zm8.485 3.515c0-2.209 1.791-4 4-4s4 1.791 4 4-1.791 4-4 4-4-1.791-4-4zm5.515 8.485c0-1.104.896-2 2-2s2 .896 2 2-.896 2-2 2-2-.896-2-2zm-3.515 8.485c0-1.104.896-2 2-2s2 .896 2 2-.896 2-2 2-2-.896-2-2zm-8.485 3.515c0-1.104.896-2 2-2s2 .896 2 2-.896 2-2 2-2-.896-2-2zm-8.485-3.515c0-1.104.896-2 2-2s2 .896 2 2-.896 2-2 2-2-.896-2-2zm-1-16.97c0-1.657 1.343-3 3-3s3 1.343 3 3-1.343 3-3 3-3-1.343-3-3zm-2.764 8.485c0-1.243 1.008-2.251 2.251-2.251s2.251 1.008 2.251 2.251c0 1.243-1.008 2.251-2.251 2.251s-2.251-1.008-2.251-2.251z"/></svg>
