<svg viewBox="0 0 32 32"><path d="M16 9.472c-1.031 0-1.865-.835-1.865-1.865v-5.596c0-1.031.835-1.865 1.865-1.865s1.865.835 1.865 1.865v5.596c0 1.031-.835 1.865-1.865 1.865zm0 21.683c-.644 0-1.165-.521-1.165-1.165v-5.596c0-.644.521-1.165 1.165-1.165s1.165.521 1.165 1.165v5.596c0 .644-.521 1.165-1.165 1.165zm-4.195-20.675c-.604 0-1.192-.313-1.516-.875l-2.797-4.845c-.483-.836-.196-1.905.64-2.389s1.905-.196 2.389.64l2.797 4.845c.483.836.196 1.905-.64 2.389-.275.159-.576.235-.873.235zm11.191 18.684c-.363 0-.715-.188-.909-.525l-2.797-4.845c-.289-.501-.117-1.144.384-1.433s1.144-.117 1.433.384l2.797 4.845c.289.501.117 1.144-.384 1.433-.165.095-.345.141-.524.141zm-14.267-15.728c-.277 0-.557-.071-.815-.219l-4.847-2.797c-.78-.451-1.048-1.449-.597-2.229s1.449-1.048 2.229-.597l4.845 2.797c.78.451 1.048 1.449.597 2.229-.303.524-.851.816-1.415.816zm19.384 10.491c-.159 0-.319-.04-.465-.125l-4.845-2.797c-.447-.257-.599-.828-.341-1.275s.828-.599 1.273-.341l4.845 2.797c.447.257.599.828.341 1.273-.173.299-.487.467-.808.467zm-20.506-6.411h-5.596c-.837 0-1.516-.679-1.516-1.516s.679-1.516 1.516-1.516h5.596c.837 0 1.516.679 1.516 1.516s-.679 1.516-1.516 1.516zm22.382-.584h-5.596c-.515 0-.932-.417-.932-.932s.417-.932.932-.932h5.596c.515 0 .932.417.932.932s-.417.932-.932.932zm-26.102 7.461c-.484 0-.953-.251-1.213-.7-.387-.669-.157-1.525.512-1.911l4.847-2.797c.669-.387 1.525-.157 1.911.512s.157 1.525-.512 1.911l-4.845 2.797c-.22.127-.461.188-.699.188zm19.382-11.657c-.323 0-.636-.167-.808-.467-.257-.447-.105-1.016.341-1.275l4.845-2.797c.447-.257 1.016-.105 1.275.341s.105 1.016-.341 1.275l-4.845 2.797c-.147.085-.307.125-.465.125zm-14.265 16.661c-.217 0-.439-.056-.64-.172-.613-.355-.824-1.139-.469-1.752l2.797-4.845c.355-.613 1.139-.824 1.752-.469s.824 1.139.469 1.752l-2.797 4.845c-.237.412-.668.641-1.112.641zm11.192-19.733c-.159 0-.319-.04-.465-.125-.447-.257-.599-.828-.341-1.273l2.797-4.845c.257-.447.828-.599 1.273-.341s.599.828.341 1.273l-2.797 4.845c-.173.299-.487.467-.808.467z"/></svg>
