<svg viewBox="0 0 32 32"><path d="M16 32c-4.273 0-8.292-1.664-11.313-4.687s-4.687-7.04-4.687-11.313c0-3.027.849-5.973 2.456-8.521 1.563-2.477 3.771-4.48 6.387-5.791l1.344 2.683c-2.127 1.065-3.921 2.693-5.192 4.708-1.304 2.069-1.995 4.463-1.995 6.921 0 7.168 5.832 13 13 13s13-5.832 13-13c0-2.459-.689-4.852-1.995-6.921-1.271-2.015-3.067-3.643-5.192-4.708l1.344-2.683c2.616 1.311 4.824 3.312 6.387 5.791 1.607 2.549 2.456 5.496 2.456 8.521 0 4.273-1.664 8.292-4.687 11.313s-7.04 4.687-11.313 4.687z"/></svg>
